<svg xmlns="http://www.w3.org/2000/svg" width="1200" height="900" viewBox="0 0 1200 900" role="img">
<defs>
<marker id="arrow" viewBox="0 0 10 10" refX="9" refY="5" markerWidth="7" markerHeight="7" orient="auto-start-reverse">
<path d="M 0 0 L 10 5 L 0 10 z" fill="#475569" />
</marker>
</defs>
<rect width="100%" height="100%" fill="#ffffff" />
<text x="60" y="58" font-family="Arial, sans-serif" font-size="28" font-weight="bold" fill="#0f172a">Included-Source Support And Source Silence</text>
<text x="60" y="88" font-family="Arial, sans-serif" font-size="13" font-weight="normal" fill="#0f172a">Source silence is scoped to included sources and release candidates; it is not evidence of biological or clinical</text>
<text x="60" y="105" font-family="Arial, sans-serif" font-size="13" font-weight="normal" fill="#0f172a">absence.</text>
<text x="360" y="125" font-family="Arial, sans-serif" font-size="12" font-weight="bold" fill="#166534">ClinVar supporting</text>
<text x="540" y="125" font-family="Arial, sans-serif" font-size="12" font-weight="bold" fill="#92400e">ClinVar silent</text>
<text x="720" y="125" font-family="Arial, sans-serif" font-size="12" font-weight="bold" fill="#0f172a">Each row totals 120 associations</text>
<text x="50" y="168" font-family="Arial, sans-serif" font-size="12" font-weight="normal" fill="#0f172a">Alzheimer disease</text>
<rect x="360" y="150" width="32" height="24" rx="4" fill="#bbf7d0" stroke="#166534" stroke-width="1" />
<rect x="392" y="150" width="617" height="24" rx="4" fill="#fde68a" stroke="#92400e" stroke-width="1" />
<text x="1028" y="168" font-family="Arial, sans-serif" font-size="12" font-weight="normal" fill="#0f172a">6/120</text>
<text x="50" y="212" font-family="Arial, sans-serif" font-size="12" font-weight="normal" fill="#0f172a">Parkinson disease</text>
<rect x="360" y="194" width="65" height="24" rx="4" fill="#bbf7d0" stroke="#166534" stroke-width="1" />
<rect x="425" y="194" width="585" height="24" rx="4" fill="#fde68a" stroke="#92400e" stroke-width="1" />
<text x="1028" y="212" font-family="Arial, sans-serif" font-size="12" font-weight="normal" fill="#0f172a">12/120</text>
<text x="50" y="256" font-family="Arial, sans-serif" font-size="12" font-weight="normal" fill="#0f172a">Type 2 diabetes mellitus</text>
<rect x="360" y="238" width="113" height="24" rx="4" fill="#bbf7d0" stroke="#166534" stroke-width="1" />
<rect x="473" y="238" width="536" height="24" rx="4" fill="#fde68a" stroke="#92400e" stroke-width="1" />
<text x="1028" y="256" font-family="Arial, sans-serif" font-size="12" font-weight="normal" fill="#0f172a">21/120</text>
<text x="50" y="300" font-family="Arial, sans-serif" font-size="12" font-weight="normal" fill="#0f172a">Breast carcinoma</text>
<rect x="360" y="282" width="0" height="24" rx="4" fill="#bbf7d0" stroke="#166534" stroke-width="1" />
<rect x="360" y="282" width="650" height="24" rx="4" fill="#fde68a" stroke="#92400e" stroke-width="1" />
<text x="1028" y="300" font-family="Arial, sans-serif" font-size="12" font-weight="normal" fill="#0f172a">0/120</text>
<text x="50" y="344" font-family="Arial, sans-serif" font-size="12" font-weight="normal" fill="#0f172a">Dilated cardiomyopathy</text>
<rect x="360" y="326" width="0" height="24" rx="4" fill="#bbf7d0" stroke="#166534" stroke-width="1" />
<rect x="360" y="326" width="650" height="24" rx="4" fill="#fde68a" stroke="#92400e" stroke-width="1" />
<text x="1028" y="344" font-family="Arial, sans-serif" font-size="12" font-weight="normal" fill="#0f172a">0/120</text>
<text x="50" y="388" font-family="Arial, sans-serif" font-size="12" font-weight="normal" fill="#0f172a">Amyotrophic lateral sclerosis</text>
<rect x="360" y="370" width="92" height="24" rx="4" fill="#bbf7d0" stroke="#166534" stroke-width="1" />
<rect x="452" y="370" width="557" height="24" rx="4" fill="#fde68a" stroke="#92400e" stroke-width="1" />
<text x="1028" y="388" font-family="Arial, sans-serif" font-size="12" font-weight="normal" fill="#0f172a">17/120</text>
<text x="50" y="432" font-family="Arial, sans-serif" font-size="12" font-weight="normal" fill="#0f172a">Huntington disease</text>
<rect x="360" y="414" width="5" height="24" rx="4" fill="#bbf7d0" stroke="#166534" stroke-width="1" />
<rect x="365" y="414" width="644" height="24" rx="4" fill="#fde68a" stroke="#92400e" stroke-width="1" />
<text x="1028" y="432" font-family="Arial, sans-serif" font-size="12" font-weight="normal" fill="#0f172a">1/120</text>
<text x="50" y="476" font-family="Arial, sans-serif" font-size="12" font-weight="normal" fill="#0f172a">Cystic fibrosis</text>
<rect x="360" y="458" width="10" height="24" rx="4" fill="#bbf7d0" stroke="#166534" stroke-width="1" />
<rect x="370" y="458" width="639" height="24" rx="4" fill="#fde68a" stroke="#92400e" stroke-width="1" />
<text x="1028" y="476" font-family="Arial, sans-serif" font-size="12" font-weight="normal" fill="#0f172a">2/120</text>
<text x="50" y="520" font-family="Arial, sans-serif" font-size="12" font-weight="normal" fill="#0f172a">Schizophrenia</text>
<rect x="360" y="502" width="32" height="24" rx="4" fill="#bbf7d0" stroke="#166534" stroke-width="1" />
<rect x="392" y="502" width="617" height="24" rx="4" fill="#fde68a" stroke="#92400e" stroke-width="1" />
<text x="1028" y="520" font-family="Arial, sans-serif" font-size="12" font-weight="normal" fill="#0f172a">6/120</text>
<text x="50" y="564" font-family="Arial, sans-serif" font-size="12" font-weight="normal" fill="#0f172a">Epilepsy</text>
<rect x="360" y="546" width="0" height="24" rx="4" fill="#bbf7d0" stroke="#166534" stroke-width="1" />
<rect x="360" y="546" width="650" height="24" rx="4" fill="#fde68a" stroke="#92400e" stroke-width="1" />
<text x="1028" y="564" font-family="Arial, sans-serif" font-size="12" font-weight="normal" fill="#0f172a">0/120</text>
<text x="50" y="608" font-family="Arial, sans-serif" font-size="12" font-weight="normal" fill="#0f172a">Inflammatory bowel disease</text>
<rect x="360" y="590" width="0" height="24" rx="4" fill="#bbf7d0" stroke="#166534" stroke-width="1" />
<rect x="360" y="590" width="650" height="24" rx="4" fill="#fde68a" stroke="#92400e" stroke-width="1" />
<text x="1028" y="608" font-family="Arial, sans-serif" font-size="12" font-weight="normal" fill="#0f172a">0/120</text>
<text x="50" y="652" font-family="Arial, sans-serif" font-size="12" font-weight="normal" fill="#0f172a">Hypertrophic cardiomyopathy</text>
<rect x="360" y="634" width="0" height="24" rx="4" fill="#bbf7d0" stroke="#166534" stroke-width="1" />
<rect x="360" y="634" width="650" height="24" rx="4" fill="#fde68a" stroke="#92400e" stroke-width="1" />
<text x="1028" y="652" font-family="Arial, sans-serif" font-size="12" font-weight="normal" fill="#0f172a">0/120</text>
<rect x="60" y="735" width="640" height="126" rx="4" fill="#f8fafc" stroke="#334155" stroke-width="1" />
<text x="85" y="770" font-family="Arial, sans-serif" font-size="15" font-weight="bold" fill="#0f172a">Aggregate source totals</text>
<text x="85" y="802" font-family="Arial, sans-serif" font-size="13" font-weight="normal" fill="#0f172a">ClinVar supports 65 candidate associations.</text>
<text x="85" y="827" font-family="Arial, sans-serif" font-size="13" font-weight="normal" fill="#0f172a">ClinVar is silent for 1,375 candidates within the release scope.</text>
<text x="85" y="852" font-family="Arial, sans-serif" font-size="13" font-weight="normal" fill="#0f172a">OpenTargets supports all 1,440 candidate associations in this release.</text>
</svg>